# xmcd CD database file
#
# Track frame offsets:
#	150
#	55354
#	101572
#	127136
#	135478
#	152318
#	166500
#
# Disc length: 2493 seconds
#
# Revision: 0
# Processed by: cddbd v1.5.2PL0 Copyright (c) Steve Scherf et al.
# Submitted via: CDex 1.51
#
DISCID=5009bb07
DTITLE=Winter,Johnny and Muddy Waters and James Cotton - Boston Music Hall 1977  CD 2
DYEAR=1977
DGENRE=Blues
TTITLE0=Instrumental
TTITLE1=Mama Talk To Your Daughter
TTITLE2=Mannish Boy
TTITLE3=Interview With Pinetop Perkins
TTITLE4=You Don't Have To Go
TTITLE5=Got My Mojo Working
TTITLE6=Interview With Maddy, Ctton and Winter
EXTD=YEAR: 1977
EXTT0=
EXTT1=
EXTT2=
EXTT3=
EXTT4=
EXTT5=
EXTT6=
PLAYORDER=
